<svg width="21.000000" height="21.000000" viewBox="0 0 21 21" fill="none" xmlns="http://www.w3.org/2000/svg" xmlns:xlink="http://www.w3.org/1999/xlink">
	<desc>
			Created with Pixso.
	</desc>
	<defs/>
	<mask id="mask_386_114" fill="white">
		<path id="Icon color" d="M15.0015 5C15.0015 7.76147 12.7623 10 10 10C7.23777 10 4.99851 7.76147 4.99851 5C4.99851 2.23853 7.23777 0 10 0C12.7623 0 15.0015 2.23853 15.0015 5ZM13.001 5C13.001 3.34302 11.6575 2 10.0001 2C8.34274 2 6.99919 3.34302 6.99919 5C6.99919 6.65674 8.34274 8 10.0001 8C11.6575 8 13.001 6.65674 13.001 5ZM19.893 18.55L18.0024 14.76C17.1544 13.0684 15.4239 12 13.5311 12L6.46893 12C4.57614 12 2.84555 13.0684 1.99758 14.76L0.10701 18.55C-0.0490112 18.8596 -0.033577 19.2278 0.147781 19.5232C0.329147 19.8186 0.650581 19.999 0.997276 20L19.0027 20C19.3494 19.999 19.6709 19.8186 19.8522 19.5232C20.0336 19.2278 20.049 18.8596 19.893 18.55ZM3.78818 15.6599L2.61782 18L17.3823 18L16.2119 15.6599C15.7046 14.644 14.667 14.0015 13.5311 14L6.46899 14C5.33315 14.0015 4.29552 14.644 3.78818 15.6599Z" clip-rule="evenodd" fill="" fill-opacity="1.000000" fill-rule="evenodd"/>
	</mask>
	<path id="Icon color" d="M15.0015 5C15.0015 7.76147 12.7623 10 10 10C7.23777 10 4.99851 7.76147 4.99851 5C4.99851 2.23853 7.23777 0 10 0C12.7623 0 15.0015 2.23853 15.0015 5ZM13.001 5C13.001 3.34302 11.6575 2 10.0001 2C8.34274 2 6.99919 3.34302 6.99919 5C6.99919 6.65674 8.34274 8 10.0001 8C11.6575 8 13.001 6.65674 13.001 5ZM19.893 18.55L18.0024 14.76C17.1544 13.0684 15.4239 12 13.5311 12L6.46893 12C4.57614 12 2.84555 13.0684 1.99758 14.76L0.10701 18.55C-0.0490112 18.8596 -0.033577 19.2278 0.147781 19.5232C0.329147 19.8186 0.650581 19.999 0.997276 20L19.0027 20C19.3494 19.999 19.6709 19.8186 19.8522 19.5232C20.0336 19.2278 20.049 18.8596 19.893 18.55ZM3.78818 15.6599L2.61782 18L17.3823 18L16.2119 15.6599C15.7046 14.644 14.667 14.0015 13.5311 14L6.46899 14C5.33315 14.0015 4.29552 14.644 3.78818 15.6599Z" clip-rule="evenodd" fill="#000000" fill-opacity="1.000000" fill-rule="evenodd" mask="url(#mask_386_114)"/>
	<path id="Icon color" d="M15.5015 5Q15.5015 6.11865 15.069 7.14111Q14.6513 8.12817 13.8901 8.88916Q13.1289 9.65015 12.1416 10.0676Q11.1189 10.5 10 10.5Q8.8811 10.5 7.85849 10.0676Q6.87112 9.65015 6.10992 8.88916Q5.34872 8.12817 4.93108 7.14111Q4.49851 6.11865 4.49851 5Q4.49851 3.88135 4.93108 2.85889Q5.34872 1.87183 6.10992 1.11084Q6.87112 0.349854 7.85849 -0.067627Q8.88111 -0.5 10 -0.5Q11.1189 -0.5 12.1416 -0.067627Q13.1289 0.349854 13.8901 1.11084Q14.6513 1.87183 15.069 2.85889Q15.5015 3.88135 15.5015 5ZM14.5015 5Q14.5015 4.08423 14.148 3.24854Q13.8064 2.44116 13.1831 1.81812Q12.5599 1.19507 11.7521 0.853516Q10.9162 0.5 10 0.5Q9.08384 0.5 8.24794 0.853516Q7.44019 1.19507 6.81693 1.81812Q6.19367 2.44116 5.85204 3.24854Q5.49851 4.08423 5.49851 5Q5.49851 5.91577 5.85204 6.75146Q6.19367 7.55884 6.81693 8.18188Q7.44019 8.80493 8.24794 9.14648Q9.08383 9.5 10 9.5Q10.9162 9.5 11.7521 9.14648Q12.5599 8.80493 13.1831 8.18188Q13.8064 7.55884 14.148 6.75146Q14.5015 5.91577 14.5015 5ZM12.501 5Q12.501 4.49097 12.3047 4.0271Q12.1149 3.57861 11.7686 3.23218Q11.4222 2.88599 10.9735 2.69629Q10.5093 2.5 10.0001 2.5Q9.49094 2.5 9.02674 2.69629Q8.57802 2.88599 8.23164 3.23218Q7.88528 3.57861 7.6955 4.0271Q7.49919 4.49097 7.49919 5Q7.49919 5.50903 7.6955 5.9729Q7.88528 6.42139 8.23164 6.76782Q8.57802 7.11401 9.02674 7.30371Q9.49094 7.5 10.0001 7.5Q10.5093 7.5 10.9735 7.30371Q11.4222 7.11401 11.7686 6.76782Q12.1149 6.42139 12.3047 5.9729Q12.501 5.50903 12.501 5ZM13.501 5Q13.501 5.71167 13.2257 6.36255Q12.9599 6.99072 12.4756 7.47485Q11.9913 7.95898 11.3629 8.22485Q10.712 8.5 10.0001 8.5Q9.2882 8.5 8.63728 8.22485Q8.00894 7.95898 7.52464 7.47485Q7.04032 6.99072 6.77454 6.36255Q6.49919 5.71167 6.49919 5Q6.49919 4.28833 6.77454 3.63745Q7.04032 3.00928 7.52464 2.52515Q8.00894 2.04102 8.63728 1.77515Q9.28821 1.5 10.0001 1.5Q10.712 1.5 11.3629 1.77515Q11.9913 2.04102 12.4756 2.52515Q12.9599 3.00928 13.2257 3.63745Q13.501 4.28833 13.501 5ZM19.4456 18.7732L17.555 14.9832Q17.2718 14.4182 16.8443 13.9536Q16.4243 13.4973 15.8959 13.1711Q15.3675 12.845 14.7712 12.6741Q14.1641 12.5 13.5311 12.5L6.46893 12.5Q5.83588 12.5 5.22877 12.6741Q4.63251 12.845 4.10408 13.1711Q3.57565 13.4973 3.15572 13.9536Q2.72816 14.4182 2.44456 14.9841L0.554428 18.7732Q0.495003 18.8911 0.500443 19.021Q0.505882 19.1506 0.573875 19.2615Q0.641891 19.3723 0.755287 19.436Q0.868706 19.4995 0.998787 19.5L19.0027 19.5Q19.1313 19.4995 19.2447 19.436Q19.3581 19.3723 19.4261 19.2615Q19.4941 19.1506 19.4996 19.021Q19.505 18.8911 19.4465 18.7751L19.4456 18.7732ZM20.3395 18.325Q20.515 18.6731 20.4987 19.0627Q20.4824 19.4524 20.2783 19.7847Q20.0743 20.1169 19.7342 20.3079Q19.3942 20.4988 19.0027 20.5L0.995766 20.5Q0.605804 20.4988 0.26577 20.3079Q-0.0742874 20.1169 -0.278313 19.7847Q-0.482361 19.4524 -0.498688 19.0627Q-0.515007 18.6731 -0.340416 18.3269L1.55059 14.5359Q1.89715 13.8445 2.41986 13.2766Q2.93311 12.7188 3.57882 12.3201Q4.22451 11.9216 4.95325 11.7126Q5.69538 11.5 6.46893 11.5L13.5311 11.5Q14.3046 11.5 15.0468 11.7126Q15.7755 11.9216 16.4212 12.3201Q17.0669 12.7188 17.5801 13.2766Q18.1028 13.8445 18.4498 14.5369L20.3404 18.3269L20.3395 18.325ZM4.23537 15.8835L3.06501 18.2236L2.61782 18L2.61782 17.5L17.3823 17.5L17.3823 18L16.9351 18.2236L15.7648 15.8835Q15.4475 15.2483 14.844 14.8748Q14.2404 14.501 13.5304 14.5L6.46899 14.5Q5.75969 14.501 5.15613 14.8748Q4.5526 15.2483 4.2355 15.8833L4.23537 15.8835ZM3.34086 15.4365Q3.56076 14.9963 3.89294 14.6343Q4.21909 14.2788 4.62967 14.0244Q5.04024 13.7703 5.50385 13.6367Q5.97603 13.5007 6.46899 13.5L13.5318 13.5Q14.0241 13.5007 14.4963 13.6367Q14.9599 13.7703 15.3705 14.0244Q15.781 14.2788 16.1072 14.6343Q16.4393 14.9963 16.6591 15.4363L18.1914 18.5L1.8087 18.5L3.34099 15.4363L3.34086 15.4365Z" fill="#FFFFFF" fill-opacity="1.000000" fill-rule="nonzero"/>
</svg>
