<svg width="20.000000" height="20.000000" viewBox="0 0 20 20" fill="none" xmlns="http://www.w3.org/2000/svg" xmlns:xlink="http://www.w3.org/1999/xlink">
	<desc>
			Created with Pixso.
	</desc>
	<defs/>
	<mask id="mask_386_111" fill="white">
		<path id="Icon color" d="M18.8645 17.3748L14.6431 13.1475C14.5063 13.0073 14.3541 12.8831 14.1893 12.7776L13.1339 12.0483C15.3047 9.3584 15.3249 5.52148 13.1825 2.80908C11.0401 0.0966797 7.30686 -0.767578 4.19304 0.728271C1.07921 2.22412 -0.584209 5.68066 0.187567 9.05151C0.959343 12.4224 3.96034 14.8081 7.41388 14.7961C9.08984 14.7966 10.7162 14.2263 12.0258 13.1792L12.8173 14.2358C12.9112 14.3721 13.0172 14.4993 13.1339 14.6165L17.3553 18.8438C17.4544 18.9438 17.5893 19 17.73 19C17.8707 19 18.0056 18.9438 18.1046 18.8438L18.8434 18.104C19.0437 17.9055 19.053 17.5845 18.8645 17.3748ZM2.13727 7.39795C2.13727 10.3164 4.49977 12.6821 7.41405 12.6821C8.81355 12.6821 10.1557 12.1255 11.1453 11.1345C12.1349 10.1436 12.6908 8.79932 12.6908 7.39795C12.6908 4.47974 10.3283 2.11377 7.41405 2.11377C4.49977 2.11377 2.13727 4.47974 2.13727 7.39795Z" clip-rule="evenodd" fill="" fill-opacity="1.000000" fill-rule="evenodd"/>
	</mask>
	<path id="Icon color" d="M18.8645 17.3748L14.6431 13.1475C14.5063 13.0073 14.3541 12.8831 14.1893 12.7776L13.1339 12.0483C15.3047 9.3584 15.3249 5.52148 13.1825 2.80908C11.0401 0.0966797 7.30686 -0.767578 4.19304 0.728271C1.07921 2.22412 -0.584209 5.68066 0.187567 9.05151C0.959343 12.4224 3.96034 14.8081 7.41388 14.7961C9.08984 14.7966 10.7162 14.2263 12.0258 13.1792L12.8173 14.2358C12.9112 14.3721 13.0172 14.4993 13.1339 14.6165L17.3553 18.8438C17.4544 18.9438 17.5893 19 17.73 19C17.8707 19 18.0056 18.9438 18.1046 18.8438L18.8434 18.104C19.0437 17.9055 19.053 17.5845 18.8645 17.3748ZM2.13727 7.39795C2.13727 10.3164 4.49977 12.6821 7.41405 12.6821C8.81355 12.6821 10.1557 12.1255 11.1453 11.1345C12.1349 10.1436 12.6908 8.79932 12.6908 7.39795C12.6908 4.47974 10.3283 2.11377 7.41405 2.11377C4.49977 2.11377 2.13727 4.47974 2.13727 7.39795Z" clip-rule="evenodd" fill="#000000" fill-opacity="1.000000" fill-rule="evenodd" mask="url(#mask_386_111)"/>
	<path id="Icon color" d="M18.5992 17.6396L14.3777 13.4124Q14.1988 13.229 13.9869 13.0933L13.9815 13.0898L12.5884 12.1272L12.8421 11.8127Q13.6047 10.8679 14.0047 9.72729Q14.3944 8.61597 14.4006 7.4353Q14.4068 6.25439 14.0288 5.13916Q13.6408 3.99438 12.8882 3.0415Q12.1356 2.08862 11.1126 1.44702Q10.1161 0.821777 8.96746 0.555908Q7.81884 0.290039 6.64948 0.413818Q5.44911 0.540771 4.35541 1.06616Q3.26167 1.59155 2.41137 2.44971Q1.58299 3.28564 1.07111 4.34937Q0.559211 5.41309 0.422408 6.58276Q0.281978 7.78369 0.553108 8.96777Q0.824234 10.1521 1.473 11.1716Q2.10498 12.1648 3.02842 12.8989Q3.95181 13.6328 5.06101 14.0239Q6.19958 14.4253 7.41258 14.4211Q8.60706 14.4214 9.73313 14.0266Q10.8592 13.6318 11.7916 12.8862L12.0939 12.6445L13.1218 14.0171L13.126 14.0229Q13.2478 14.1997 13.3994 14.3516L17.6207 18.5786Q17.6665 18.625 17.73 18.625Q17.7935 18.625 17.8382 18.5798L18.578 17.8389Q18.6232 17.7942 18.6249 17.7327Q18.6267 17.6711 18.5856 17.6255L18.8645 17.3748L18.5992 17.6396ZM19.1299 17.1096L19.1368 17.1167L19.1434 17.124Q19.3851 17.3928 19.3746 17.7544Q19.3642 18.116 19.1087 18.3689L18.3711 19.1077Q18.244 19.2358 18.0773 19.3054Q17.9106 19.375 17.73 19.375Q17.5494 19.375 17.3827 19.3054Q17.216 19.2358 17.09 19.1086L12.8685 14.8813Q12.669 14.6814 12.5086 14.449L12.8173 14.2358L12.5172 14.4607L11.7256 13.4038L12.0258 13.1792L12.26 13.4719Q11.2279 14.2974 9.98128 14.7344Q8.73462 15.1714 7.41518 15.1711Q6.07252 15.1758 4.81166 14.7312Q3.58369 14.2983 2.56171 13.4858Q1.53977 12.6736 0.840238 11.5742Q0.122023 10.4456 -0.177975 9.13525Q-0.477967 7.82495 -0.322515 6.49561Q-0.171112 5.20117 0.395294 4.02417Q0.961718 2.84717 1.87864 1.92188Q2.82014 0.97168 4.03066 0.390137Q5.24122 -0.191406 6.57052 -0.332031Q7.8652 -0.468994 9.1366 -0.174805Q10.408 0.119629 11.5112 0.811523Q12.6439 1.52222 13.4767 2.57666Q14.3095 3.6311 14.7391 4.89844Q15.1575 6.13281 15.1506 7.43921Q15.1438 8.74561 14.7124 9.97559Q14.2696 11.2383 13.4257 12.2837L13.1339 12.0483L13.3471 11.7397L14.4024 12.469L14.1893 12.7776L14.3916 12.4617Q14.6758 12.6438 14.9084 12.8823L19.1299 17.1096ZM2.51227 7.39795Q2.51227 8.39697 2.89739 9.30884Q3.26948 10.1899 3.94815 10.8694Q4.62677 11.5491 5.50635 11.9216Q6.41664 12.3071 7.41405 12.3071Q8.38898 12.3071 9.28972 11.9336Q10.1905 11.5598 10.88 10.8694Q11.5695 10.179 11.9426 9.27686Q12.3158 8.37451 12.3158 7.39795Q12.3158 6.39893 11.9307 5.48706Q11.5586 4.6062 10.88 3.92651Q10.2013 3.24707 9.32176 2.87451Q8.41147 2.48877 7.41405 2.48877Q6.41664 2.48877 5.50635 2.87451Q4.62677 3.24707 3.94815 3.92651Q3.26948 4.6062 2.89739 5.48706Q2.51227 6.39893 2.51227 7.39795L2.51227 7.39795ZM1.76227 7.39795Q1.76227 6.24707 2.20649 5.19531Q2.63547 4.17969 3.41745 3.39648Q4.19949 2.61353 5.21384 2.18384Q6.26435 1.73877 7.41405 1.73877Q8.56376 1.73877 9.61427 2.18384Q10.6286 2.61353 11.4107 3.39648Q12.1926 4.17969 12.6216 5.19531Q13.0658 6.24707 13.0658 7.39795Q13.0658 8.52344 12.6357 9.56348Q12.2055 10.6035 11.4107 11.3994Q10.6157 12.1956 9.57707 12.6262Q8.53836 13.0571 7.41405 13.0571Q6.26435 13.0571 5.21384 12.6121Q4.19949 12.1826 3.41745 11.3994Q2.63547 10.6165 2.20649 9.60083Q1.76227 8.54907 1.76227 7.39795L1.76227 7.39795Z" fill="#FFFFFF" fill-opacity="1.000000" fill-rule="nonzero"/>
</svg>
