<svg width="128.000000" height="26.000000" viewBox="0 0 128 26" fill="none" xmlns="http://www.w3.org/2000/svg" xmlns:xlink="http://www.w3.org/1999/xlink">
	<desc>
			Created with Pixso.
	</desc>
	<defs/>
	<path id="SHOPPE" d="M44.49 6.9Q43.75 9.24 43.75 12.28Q43.75 15.32 44.49 17.68Q45.22 20.04 46.54 21.66Q47.46 22.8 48.63 23.57Q49.12 23.9 49.67 24.16Q50.09 24.36 50.54 24.53Q51.97 25.06 53.56 25.17L53.56 21.78Q53.28 21.76 53 21.7Q52.17 21.53 51.41 21.08Q50.38 20.48 49.61 19.32Q48.85 18.16 48.4 16.43Q47.96 14.71 47.92 12.28Q47.96 9.89 48.4 8.14Q48.85 6.4 49.6 5.27Q50.35 4.15 51.37 3.56Q51.93 3.25 52.54 3.06Q53.03 2.91 53.56 2.85L53.56 -0.57Q51.63 -0.45 49.97 0.29Q49.81 0.36 49.65 0.44Q49.19 0.66 48.76 0.93Q47.52 1.72 46.54 2.93Q45.22 4.56 44.49 6.9ZM57.88 0.02Q56.49 -0.49 54.93 -0.57L54.93 2.81Q55.22 2.84 55.49 2.9Q56.32 3.07 57.08 3.51Q58.11 4.11 58.88 5.26Q59.65 6.4 60.09 8.13Q60.54 9.85 60.57 12.28Q60.54 14.71 60.09 16.43Q59.65 18.16 58.89 19.3Q58.14 20.45 57.12 21.05Q56.52 21.4 55.87 21.59Q55.41 21.73 54.93 21.78L54.93 25.17Q56.94 25.04 58.65 24.24Q58.74 24.2 58.83 24.16Q59.2 23.97 59.56 23.76Q60.88 22.94 61.92 21.66Q63.24 20.04 63.99 17.68Q64.74 15.32 64.74 12.28Q64.74 9.24 63.99 6.9Q63.24 4.56 61.92 2.93Q60.96 1.74 59.73 0.95Q59.29 0.66 58.81 0.42Q58.36 0.2 57.88 0.02ZM22.9 -0.2L18.73 -0.2L18.73 25L22.9 25L22.9 -0.2ZM37.91 25L37.91 -0.2L33.81 -0.2L33.81 10.84L24.3 10.84L24.3 13.65L33.81 13.65L33.81 25L37.91 25ZM74.58 -0.2L70.48 -0.2L70.48 25L74.58 25L74.58 -0.2ZM78.39 -0.17Q78.06 -0.2 77.73 -0.2L75.98 -0.2L75.98 2.91L77.66 2.91Q79.23 2.91 80.19 3.41Q81.15 3.91 81.68 4.64Q82.21 5.38 82.38 6.18Q82.55 6.98 82.55 7.6Q82.55 9.14 82.17 10.18Q81.79 11.22 81.18 11.8Q80.59 12.36 79.89 12.62Q79.86 12.63 79.83 12.64Q79.24 12.85 78.63 12.89Q78.49 12.9 78.34 12.9L75.98 12.9L75.98 15.9L77.62 15.9Q79.61 15.9 81.25 15.32Q82.89 14.74 84.05 13.68Q84.21 13.53 84.36 13.38Q85.3 12.41 85.86 11.07Q86.51 9.51 86.51 7.6Q86.51 5.96 85.89 4.62Q85.82 4.47 85.74 4.33Q85.27 3.44 84.62 2.71Q84.21 2.25 83.73 1.86Q83.32 1.52 82.87 1.24Q81.96 0.66 80.91 0.32Q79.66 -0.09 78.39 -0.17ZM95.26 -0.2L91.16 -0.2L91.16 25L95.26 25L95.26 -0.2ZM99.07 -0.17Q98.74 -0.2 98.41 -0.2L96.66 -0.2L96.66 2.91L98.34 2.91Q99.91 2.91 100.87 3.41Q101.82 3.91 102.35 4.64Q102.88 5.38 103.06 6.18Q103.23 6.98 103.23 7.6Q103.23 9.14 102.85 10.18Q102.47 11.22 101.86 11.8Q101.27 12.36 100.57 12.62Q100.54 12.63 100.51 12.64Q99.92 12.85 99.31 12.89Q99.17 12.9 99.02 12.9L96.66 12.9L96.66 15.9L98.3 15.9Q100.29 15.9 101.93 15.32Q103.57 14.74 104.73 13.68Q104.89 13.53 105.04 13.38Q105.98 12.41 106.54 11.07Q107.19 9.51 107.19 7.6Q107.19 5.96 106.56 4.62Q106.5 4.47 106.42 4.33Q105.95 3.44 105.3 2.71Q104.89 2.25 104.41 1.86Q104 1.52 103.55 1.24Q102.64 0.66 101.59 0.32Q100.34 -0.09 99.07 -0.17ZM116.15 -0.2L111.98 -0.2L111.98 25L116.15 25L116.15 -0.2ZM127.73 2.91L127.73 -0.2L117.55 -0.2L117.55 2.91L127.73 2.91ZM117.55 13.65L126.67 13.65L126.67 10.84L117.55 10.84L117.55 13.65ZM127.73 21.88L117.55 21.88L117.55 25L127.73 25L127.73 21.88Z" fill="#000000" fill-opacity="1.000000" fill-rule="evenodd"/>
	<path id="SHOPPE" d="M11.32 3.46Q11.56 3.63 11.73 3.7Q11.76 3.67 11.93 3.36Q12.1 3.05 12.34 2.59Q12.58 2.13 12.85 1.6Q13.13 1.07 13.33 0.62Q12.38 0.01 10.82 -0.28Q9.27 -0.57 7.76 -0.61L7.76 2.85Q8.82 2.78 9.5 2.88Q10.19 2.98 10.63 3.14Q11.08 3.29 11.32 3.46ZM0.45 3.74Q-0.07 4.93 -0.07 6.44Q-0.07 8.01 0.53 9.14Q0.91 9.85 1.42 10.46Q1.72 10.81 2.05 11.12Q2.06 11.12 2.07 11.13Q2.98 11.98 4.1 12.6Q5.23 13.24 6.36 13.78L6.36 9.89Q5.27 9.27 4.55 8.45Q4.46 8.35 4.38 8.24Q3.83 7.47 3.83 6.3Q3.83 6.27 3.83 6.24Q3.85 5.31 4.55 4.4Q4.96 3.87 5.48 3.52Q5.89 3.25 6.36 3.09L6.36 -0.5Q5.51 -0.39 4.7 -0.12Q4.29 0.02 3.88 0.2Q3.06 0.56 2.4 1.11Q2.1 1.36 1.83 1.63Q1.63 1.84 1.44 2.07Q0.84 2.82 0.45 3.74ZM10.07 11.66Q8.89 11.08 7.76 10.57L7.76 14.57Q8.99 15.25 9.78 16.04Q10.07 16.34 10.26 16.69Q10.56 17.28 10.56 18.02Q10.56 19.65 9.76 20.6Q9.07 21.43 7.76 21.75L7.76 25.03Q9.33 24.82 10.56 24.17Q11.79 23.53 12.63 22.59Q13.1 22.06 13.45 21.47Q13.73 21 13.93 20.48Q14.21 19.77 14.32 19.03Q14.39 18.57 14.39 18.09Q14.39 16.31 13.78 15.12Q13.23 14.05 12.41 13.27Q12.31 13.17 12.21 13.08Q12.19 13.07 12.17 13.05Q11.23 12.24 10.07 11.66ZM1.69 20.91Q0.96 20.65 0.48 20.38L-0.24 23.32Q0.34 23.83 1.15 24.19Q1.95 24.55 2.84 24.76Q3.73 24.96 4.6 25.05Q5.47 25.13 6.29 25.13L6.36 25.13L6.36 21.88L6.26 21.88Q5.57 21.88 4.79 21.75Q4 21.61 3.22 21.39Q2.43 21.17 1.69 20.91Z" fill="#A18A68" fill-opacity="1.000000" fill-rule="evenodd"/>
</svg>
